<svg width="1024" height="1024" viewBox="-2 -2 28 28" fill="none" xmlns="http://www.w3.org/2000/svg">
  <defs>
    <linearGradient id="logo-net-grad" x1="0" y1="0" x2="24" y2="24" gradientUnits="userSpaceOnUse">
      <stop offset="0%" stop-color="#06b6d4" />
      <stop offset="100%" stop-color="#2563eb" />
    </linearGradient>
  </defs>

  <!-- Network lines -->
  <g stroke="url(#logo-net-grad)" stroke-width="0.3" stroke-linecap="round" stroke-linejoin="round">
    <polygon points="12,1.5 21.09,6.75 21.09,17.25 12,22.5 2.91,17.25 2.91,6.75" />
    <polygon points="12,5.5 17.63,8.75 17.63,15.25 12,18.5 6.37,15.25 6.37,8.75" />
    <line x1="12" y1="1.5" x2="12" y2="5.5"/>
    <line x1="21.09" y1="6.75" x2="17.63" y2="8.75"/>
    <line x1="21.09" y1="17.25" x2="17.63" y2="15.25"/>
    <line x1="12" y1="22.5" x2="12" y2="18.5"/>
    <line x1="2.91" y1="17.25" x2="6.37" y2="15.25"/>
    <line x1="2.91" y1="6.75" x2="6.37" y2="8.75"/>
    <line x1="12" y1="1.5" x2="17.63" y2="8.75"/>
    <line x1="21.09" y1="6.75" x2="12" y2="5.5"/>
    <line x1="21.09" y1="6.75" x2="17.63" y2="15.25"/>
    <line x1="21.09" y1="17.25" x2="17.63" y2="8.75"/>
    <line x1="21.09" y1="17.25" x2="12" y2="18.5"/>
    <line x1="12" y1="22.5" x2="17.63" y2="15.25"/>
    <line x1="12" y1="22.5" x2="6.37" y2="15.25"/>
    <line x1="2.91" y1="17.25" x2="12" y2="18.5"/>
    <line x1="2.91" y1="17.25" x2="6.37" y2="8.75"/>
    <line x1="2.91" y1="6.75" x2="6.37" y2="15.25"/>
    <line x1="2.91" y1="6.75" x2="12" y2="5.5"/>
    <line x1="12" y1="1.5" x2="6.37" y2="8.75"/>
  </g>

  <!-- Nodes -->
  <g fill="url(#logo-net-grad)">
    <circle cx="12" cy="1.5" r="0.8"/>
    <circle cx="21.09" cy="6.75" r="0.8"/>
    <circle cx="21.09" cy="17.25" r="0.8"/>
    <circle cx="12" cy="22.5" r="0.8"/>
    <circle cx="2.91" cy="17.25" r="0.8"/>
    <circle cx="2.91" cy="6.75" r="0.8"/>
    <circle cx="12" cy="5.5" r="0.8"/>
    <circle cx="17.63" cy="8.75" r="0.8"/>
    <circle cx="17.63" cy="15.25" r="0.8"/>
    <circle cx="12" cy="18.5" r="0.8"/>
    <circle cx="6.37" cy="15.25" r="0.8"/>
    <circle cx="6.37" cy="8.75" r="0.8"/>
  </g>

  <!-- Inside < > -->
  <path d="M 10 9.5 L 7.5 12 L 10 14.5" fill="none" stroke="url(#logo-net-grad)" stroke-width="1.8" stroke-linecap="round" stroke-linejoin="round" />
  <path d="M 14 9.5 L 16.5 12 L 14 14.5" fill="none" stroke="url(#logo-net-grad)" stroke-width="1.8" stroke-linecap="round" stroke-linejoin="round" />
</svg>
